<svg width="1134" height="256" viewBox="0 0 1134 256" fill="none" xmlns="http://www.w3.org/2000/svg">
<path d="M1133.9 0H0V255.1H1133.9V0Z" fill="black"/>
<path d="M391.9 170.5C384.5 170.5 378.4 168.2 373.7 163.6C369.2 159 366.9 152.9 366.9 145.4V109.6C366.9 102.4 369.3 96.4 374 91.6C378.8 86.9 384.8 84.5 391.9 84.5H474.7C475.2 84.5 475.6 84.9 475.6 85.4V98C475.6 98.5 475.2 98.9 474.7 98.9H391.9C388.7 98.9 386 99.9 384.1 101.8C382.2 103.7 381.3 106.4 381.3 109.6V145.4C381.3 152.6 384.8 156.1 391.9 156.1H460.2C460.8 156.1 461.2 155.6 461.2 155.1V135.7C461.2 135.1 460.7 134.7 460.2 134.7H430.3C429.8 134.7 429.4 134.3 429.4 133.8V121.2C429.4 120.7 429.8 120.3 430.3 120.3H474.7C475.2 120.3 475.6 120.7 475.6 121.2V169.7C475.6 170.2 475.2 170.6 474.7 170.6H391.9V170.5Z" fill="white"/>
<path d="M512.8 170.5C507.4 170.5 502.9 168.7 499.4 165.3C495.9 161.8 494.1 157.3 494.1 151.8V126.7C494.1 121.4 495.9 117 499.5 113.4C503.1 109.8 507.6 107.9 512.8 107.9H554.2C559.6 107.9 564.1 109.7 567.6 113.3C571.2 116.9 573 121.4 573 126.7V151.8C573 157.4 571.3 161.9 567.9 165.4C564.5 168.8 559.9 170.5 554.2 170.5H512.8ZM512.8 120.2C511 120.2 509.5 120.8 508.2 122.1C507 123.3 506.4 124.8 506.4 126.6V151.7C506.4 156 508.5 158 512.8 158H554.2C558.5 158 560.6 155.9 560.6 151.7V126.6C560.6 122.3 558.5 120.1 554.2 120.1H512.8V120.2Z" fill="white"/>
<path d="M619.2 170.5C618.7 170.5 618.3 170.1 618.3 169.6V121.2C618.3 120.6 617.8 120.2 617.3 120.2H586.4C585.9 120.2 585.5 119.8 585.5 119.3V108.8C585.5 108.3 585.9 107.9 586.4 107.9H663.5C664 107.9 664.4 108.3 664.4 108.8V119.3C664.4 119.8 664 120.2 663.5 120.2H632.4C631.8 120.2 631.4 120.7 631.4 121.2V169.6C631.4 170.1 631 170.5 630.5 170.5H619.2Z" fill="white"/>
<path d="M695.2 170.5C689.8 170.5 685.3 168.7 681.8 165.3C678.3 161.8 676.5 157.3 676.5 151.8V126.7C676.5 121.4 678.3 117 681.9 113.4C685.5 109.8 690 107.9 695.2 107.9H736.6C742 107.9 746.5 109.7 750 113.3C753.6 116.9 755.4 121.4 755.4 126.7V151.8C755.4 157.4 753.7 161.9 750.3 165.4C746.9 168.8 742.3 170.5 736.6 170.5H695.2ZM695.2 120.2C693.4 120.2 691.9 120.8 690.7 122.1C689.5 123.3 688.9 124.8 688.9 126.6V151.7C688.9 156 691 158 695.3 158H736.7C741 158 743.1 155.9 743.1 151.7V126.6C743.1 122.3 741 120.1 736.7 120.1H695.2V120.2Z" fill="white"/>
<path d="M774.7 170.5C774.2 170.5 773.8 170.1 773.8 169.6V108.8C773.8 108.3 774.2 107.9 774.7 107.9H785.3C785.8 107.9 786.2 108.3 786.2 108.8V169.6C786.2 170.1 785.8 170.5 785.3 170.5H774.7Z" fill="white"/>
<path d="M882.5 170.7H867.9C867.6 170.7 867.3 170.6 867.1 170.4L818.4 124.4C818.2 124.2 817.8 124.1 817.5 124.2C817.2 124.3 817 124.6 817 124.9V169.5C817 170.1 816.5 170.6 815.9 170.6H805.3C804.7 170.6 804.2 170.1 804.2 169.5V108.7C804.2 108.1 804.7 107.6 805.3 107.6H819.9C820.2 107.6 820.5 107.7 820.7 107.9L869.3 153.9C869.5 154.1 869.9 154.2 870.2 154.1C870.5 154 870.7 153.7 870.7 153.4V108.8C870.7 108.2 871.2 107.7 871.8 107.7H882.5C883.1 107.7 883.6 108.2 883.6 108.8V169.6C883.6 170.2 883.2 170.7 882.5 170.7Z" fill="white"/>
<path d="M918 170.5C912.6 170.5 908.1 168.7 904.6 165.3C901.1 161.8 899.3 157.2 899.3 151.8V126.7C899.3 121.2 901.1 116.7 904.6 113.2C908.1 109.7 912.6 108 918 108H976.5C977 108 977.4 108.4 977.4 108.9V119.4C977.4 119.9 977 120.3 976.5 120.3H918C913.7 120.3 911.6 122.4 911.6 126.8V151.9C911.6 156.2 913.7 158.2 918 158.2H976.5C977 158.2 977.4 158.6 977.4 159.1V169.7C977.4 170.2 977 170.6 976.5 170.6H918V170.5Z" fill="white"/>
<path d="M191.3 124.9C191 124.6 191 124 191.3 123.7L249.6 65.4C254.6 60.4 260.3 57.8 266.5 57.8C272.7 57.9 278.2 60.5 283.3 65.6L316 98.2C320.9 103.1 323.3 108.8 323.3 115.2C323.3 121.7 320.9 127.3 316 132.1L257.8 190.3C257.5 190.6 256.9 190.6 256.6 190.3L248 181.7C247.7 181.4 247.7 180.8 248 180.5L307.2 121.3C310.6 117.9 310.6 112.4 307.2 109L272.6 74.4C269.2 71 263.7 71 260.3 74.4L211.1 123.6C210.7 124 210.7 124.6 211.1 125L228.2 142.1C228.6 142.5 229.2 142.5 229.6 142.1L249.8 121.9C250.1 121.6 250.7 121.6 251 121.9L259.6 130.5C259.9 130.8 259.9 131.4 259.6 131.7L229.4 161.9C229.1 162.2 228.5 162.2 228.2 161.9L191.3 124.9Z" fill="url(#paint0_linear)"/>
<path d="M288.4 130.2C288.7 130.5 288.7 131.1 288.4 131.4L230.1 189.7C225.1 194.7 219.4 197.3 213.2 197.3C207 197.2 201.5 194.6 196.4 189.5L163.8 157C158.9 152.1 156.5 146.4 156.5 140C156.5 133.5 158.9 127.9 163.8 123.1L221.9 65C222.2 64.7 222.8 64.7 223.1 65L231.7 73.6C232 73.9 232 74.5 231.7 74.8L172.6 133.9C169.2 137.3 169.2 142.8 172.6 146.2L207.2 180.8C210.6 184.2 216.1 184.2 219.5 180.8L268.5 131.8C268.9 131.4 268.9 130.8 268.5 130.4L251.4 113.3C251 112.9 250.4 112.9 250 113.3L229.8 133.5C229.5 133.8 228.9 133.8 228.6 133.5L220 124.9C219.7 124.6 219.7 124 220 123.7L250.4 93.3C250.7 93 251.3 93 251.6 93.3L288.4 130.2Z" fill="url(#paint1_linear)"/>
<defs>
<linearGradient id="paint0_linear" x1="333.306" y1="126.698" x2="201.571" y2="122.097" gradientUnits="userSpaceOnUse">
<stop stop-color="#27C4F4"/>
<stop offset="1" stop-color="#2962FF"/>
</linearGradient>
<linearGradient id="paint1_linear" x1="164.763" y1="120.877" x2="290.839" y2="145.384" gradientUnits="userSpaceOnUse">
<stop stop-color="#E71C23"/>
<stop offset="1" stop-color="#FCDA00"/>
</linearGradient>
</defs>
</svg>
