<svg width="822" height="141" viewBox="0 0 822 141" fill="none" xmlns="http://www.w3.org/2000/svg">
<path d="M235.9 113.5C228.5 113.5 222.4 111.2 217.7 106.6C213.2 102 210.9 95.9 210.9 88.4V52.6C210.9 45.4 213.3 39.4 218 34.6C222.8 29.9 228.8 27.5 235.9 27.5H318.7C319.2 27.5 319.6 27.9 319.6 28.4V41C319.6 41.5 319.2 41.9 318.7 41.9H235.9C232.7 41.9 230 42.9 228.1 44.8C226.2 46.7 225.3 49.4 225.3 52.6V88.4C225.3 95.6 228.8 99.1 235.9 99.1H304.2C304.8 99.1 305.2 98.6 305.2 98.1V78.7C305.2 78.1 304.7 77.7 304.2 77.7H274.3C273.8 77.7 273.4 77.3 273.4 76.8V64.2C273.4 63.7 273.8 63.3 274.3 63.3H318.7C319.2 63.3 319.6 63.7 319.6 64.2V112.7C319.6 113.2 319.2 113.6 318.7 113.6H235.9V113.5Z" fill="white"/>
<path d="M356.8 113.5C351.4 113.5 346.9 111.7 343.4 108.3C339.9 104.8 338.1 100.3 338.1 94.8V69.7C338.1 64.4 339.9 60 343.5 56.4C347.1 52.8 351.6 50.9 356.8 50.9H398.2C403.6 50.9 408.1 52.7 411.6 56.3C415.2 59.9 417 64.4 417 69.7V94.8C417 100.4 415.3 104.9 411.9 108.4C408.5 111.8 403.9 113.5 398.2 113.5H356.8ZM356.8 63.2C355 63.2 353.5 63.8 352.2 65.1C351 66.3 350.4 67.8 350.4 69.6V94.7C350.4 99 352.5 101 356.8 101H398.2C402.5 101 404.6 98.9 404.6 94.7V69.6C404.6 65.3 402.5 63.1 398.2 63.1H356.8V63.2Z" fill="white"/>
<path d="M463.2 113.5C462.7 113.5 462.3 113.1 462.3 112.6V64.2C462.3 63.6 461.8 63.2 461.3 63.2H430.4C429.9 63.2 429.5 62.8 429.5 62.3V51.8C429.5 51.3 429.9 50.9 430.4 50.9H507.5C508 50.9 508.4 51.3 508.4 51.8V62.3C508.4 62.8 508 63.2 507.5 63.2H476.4C475.8 63.2 475.4 63.7 475.4 64.2V112.6C475.4 113.1 475 113.5 474.5 113.5H463.2Z" fill="white"/>
<path d="M539.2 113.5C533.8 113.5 529.3 111.7 525.8 108.3C522.3 104.8 520.5 100.3 520.5 94.8V69.7C520.5 64.4 522.3 60 525.9 56.4C529.5 52.8 534 50.9 539.2 50.9H580.6C586 50.9 590.5 52.7 594 56.3C597.6 59.9 599.4 64.4 599.4 69.7V94.8C599.4 100.4 597.7 104.9 594.3 108.4C590.9 111.8 586.3 113.5 580.6 113.5H539.2ZM539.2 63.2C537.4 63.2 535.9 63.8 534.7 65.1C533.5 66.3 532.9 67.8 532.9 69.6V94.7C532.9 99 535 101 539.3 101H580.7C585 101 587.1 98.9 587.1 94.7V69.6C587.1 65.3 585 63.1 580.7 63.1H539.2V63.2Z" fill="white"/>
<path d="M618.7 113.5C618.2 113.5 617.8 113.1 617.8 112.6V51.8C617.8 51.3 618.2 50.9 618.7 50.9H629.3C629.8 50.9 630.2 51.3 630.2 51.8V112.6C630.2 113.1 629.8 113.5 629.3 113.5H618.7Z" fill="white"/>
<path d="M726.5 113.7H711.9C711.6 113.7 711.3 113.6 711.1 113.4L662.4 67.4C662.2 67.2 661.8 67.1 661.5 67.2C661.2 67.3 661 67.6 661 67.9V112.5C661 113.1 660.5 113.6 659.9 113.6H649.3C648.7 113.6 648.2 113.1 648.2 112.5V51.7C648.2 51.1 648.7 50.6 649.3 50.6H663.9C664.2 50.6 664.5 50.7 664.7 50.9L713.3 96.9C713.5 97.1 713.9 97.2 714.2 97.1C714.5 97 714.7 96.7 714.7 96.4V51.8C714.7 51.2 715.2 50.7 715.8 50.7H726.5C727.1 50.7 727.6 51.2 727.6 51.8V112.6C727.6 113.2 727.2 113.7 726.5 113.7Z" fill="white"/>
<path d="M762 113.5C756.6 113.5 752.1 111.7 748.6 108.3C745.1 104.8 743.3 100.2 743.3 94.8V69.7C743.3 64.2 745.1 59.7 748.6 56.2C752.1 52.7 756.6 51 762 51H820.5C821 51 821.4 51.4 821.4 51.9V62.4C821.4 62.9 821 63.3 820.5 63.3H762C757.7 63.3 755.6 65.4 755.6 69.8V94.9C755.6 99.2 757.7 101.2 762 101.2H820.5C821 101.2 821.4 101.6 821.4 102.1V112.7C821.4 113.2 821 113.6 820.5 113.6H762V113.5Z" fill="white"/>
<path d="M35.3 67.9C35 67.6 35 67 35.3 66.7L93.6 8.39999C98.6 3.39999 104.3 0.799988 110.5 0.799988C116.7 0.899988 122.2 3.49999 127.3 8.59999L160 41.2C164.9 46.1 167.3 51.8 167.3 58.2C167.3 64.7 164.9 70.3 160 75.1L101.8 133.3C101.5 133.6 100.9 133.6 100.6 133.3L92 124.7C91.7 124.4 91.7 123.8 92 123.5L151.2 64.3C154.6 60.9 154.6 55.4 151.2 52L116.6 17.4C113.2 14 107.7 14 104.3 17.4L55.1 66.6C54.7 67 54.7 67.6 55.1 68L72.2 85.1C72.6 85.5 73.2 85.5 73.6 85.1L93.8 64.9C94.1 64.6 94.7 64.6 95 64.9L103.6 73.5C103.9 73.8 103.9 74.4 103.6 74.7L73.4 104.9C73.1 105.2 72.5 105.2 72.2 104.9L35.3 67.9Z" fill="url(#paint0_linear)"/>
<path d="M132.4 73.2C132.7 73.5 132.7 74.1 132.4 74.4L74.1 132.7C69.1 137.7 63.4 140.3 57.2 140.3C51 140.2 45.5 137.6 40.4 132.5L7.8 100C2.9 95.1 0.5 89.4 0.5 83C0.5 76.5 2.9 70.9 7.8 66.1L65.9 7.99999C66.2 7.69999 66.8 7.69999 67.1 7.99999L75.7 16.6C76 16.9 76 17.5 75.7 17.8L16.6 76.9C13.2 80.3 13.2 85.8 16.6 89.2L51.2 123.8C54.6 127.2 60.1 127.2 63.5 123.8L112.5 74.8C112.9 74.4 112.9 73.8 112.5 73.4L95.4 56.3C95 55.9 94.4 55.9 94 56.3L73.8 76.5C73.5 76.8 72.9 76.8 72.6 76.5L64 67.9C63.7 67.6 63.7 67 64 66.7L94.4 36.3C94.7 36 95.3 36 95.6 36.3L132.4 73.2Z" fill="url(#paint1_linear)"/>
<defs>
<linearGradient id="paint0_linear" x1="177.306" y1="69.6978" x2="45.5711" y2="65.0974" gradientUnits="userSpaceOnUse">
<stop stop-color="#27C4F4"/>
<stop offset="1" stop-color="#2962FF"/>
</linearGradient>
<linearGradient id="paint1_linear" x1="8.76341" y1="63.877" x2="134.839" y2="88.3836" gradientUnits="userSpaceOnUse">
<stop stop-color="#E71C23"/>
<stop offset="1" stop-color="#FCDA00"/>
</linearGradient>
</defs>
</svg>
